<svg id="Layer_1" data-name="Layer 1" xmlns="http://www.w3.org/2000/svg" viewBox="0 0 560.76 560.76"><title>tg</title><path d="M300,580.35A280.38,280.38,0,0,1,101.7,101.71,280.38,280.38,0,0,1,498.22,498.23,278.55,278.55,0,0,1,300,580.35Zm0-533.76C160.25,46.59,46.58,160.25,46.58,300S160.25,553.35,300,553.35,553.34,439.68,553.34,300,439.68,46.59,300,46.59Z" transform="translate(-19.58 -19.59)" style="fill:#1d1d1b"/><path d="M366.53,448.27a33.78,33.78,0,0,1-13.57-3,10.51,10.51,0,0,1-2.19-1.29L241.62,360.26l-38.44-18.58-66.71-22.46-.16-.06c-1.68-.6-16.49-6.24-18.24-20.26-1.51-12.06,8.94-20.16,18.45-23.49L403.81,170.57c4.38-1.89,18.33-7,28.32-.49,3.06,2,8.19,6.8,8.19,16.53a10.51,10.51,0,0,1-.2,2L392.46,429a10.5,10.5,0,0,1-.55,1.86c-.45,1.13-4.71,11.13-15.34,15.49A26.34,26.34,0,0,1,366.53,448.27Zm-4.1-21.85c2.55,1,4.62,1.12,6.17.48a8.28,8.28,0,0,0,3.53-3.35L418.85,188a29.31,29.31,0,0,0-6.8,1.9l-.39.16L144,295l-.44.16a17.93,17.93,0,0,0-3.82,2,13.66,13.66,0,0,0,3.62,2.18L210.51,322a10.51,10.51,0,0,1,1.22.5l40,19.33a10.55,10.55,0,0,1,1.82,1.12Z" transform="translate(-19.58 -19.59)" style="fill:#1d1d1b"/><path d="M289.33,383.61l-43.51,39.67c0,1.28-7.12,1.28-7.12,0L247,350.56l.46-1.28s122-109.67,127-114.33,3.33-5.67,3.33-5.67c.33-5.67-9,0-9,0L207.16,331.94s20.33,66.67,24.33,79.33,6.36,12.44,7.21,12.44" transform="translate(-19.58 -19.59)" style="fill:#1d1d1b"/><path d="M242.26,434.74a20,20,0,0,1-5.11-.61c-9-1-12.81-10.61-15.68-19.7-4-12.57-23.53-76.71-24.36-79.43a10.5,10.5,0,0,1,4.41-11.93L363.19,220.41l.18-.11c5.16-3.13,12.64-6.06,19-2.23a12.26,12.26,0,0,1,5.78,8.71,11.38,11.38,0,0,1,.37,1.91c.64,6.06-3.34,10.63-6.87,13.93C377,247,275.32,338.37,257.12,354.73l-5.63,49.17,30.77-28.05a10.5,10.5,0,1,1,14.15,15.52l-42.63,38.86C251.69,432.74,248.11,434.74,242.26,434.74Zm-22.73-98.22c3.07,10.05,8.64,28.29,13.49,44.1l3.58-31.26a10.51,10.51,0,0,1,.54-2.33l.46-1.28a10.49,10.49,0,0,1,2.87-4.28c18.76-16.86,45.16-40.6,69-62.08Z" transform="translate(-19.58 -19.59)" style="fill:#1d1d1b"/><path d="M289.33,394.11a10.45,10.45,0,0,1-6.46-2.23l-42.3-33.05a10.5,10.5,0,1,1,12.93-16.55l42.3,33.05a10.5,10.5,0,0,1-6.47,18.77Z" transform="translate(-19.58 -19.59)" style="fill:#1d1d1b"/></svg>